<svg xmlns="http://www.w3.org/2000/svg" viewBox="0 0 71 24" fill="none" class="h-5 sm:h-6">
    <path fill-rule="evenodd" clip-rule="evenodd" d="M22.5522 17.2824C22.1023 16.4993 21.577 15.6857 20.9878 14.8542H22.464C22.71 14.8542 22.9097 14.6279 22.9097 14.3491V11.2702C22.9097 10.9915 22.71 10.7652 22.464 10.7652H11.31C10.3035 10.7652 9.42148 11.3642 8.92536 12.2647C7.15271 10.3478 5.65654 8.41762 4.61669 6.69025C3.32025 4.53691 2.87816 2.93012 3.4027 2.28098C3.58466 2.05547 3.8846 1.94428 4.28619 1.94428C5.04031 1.94428 6.15408 2.33658 7.51875 3.09925C8.24871 3.50722 9.02345 4.00601 9.82519 4.57997H5.58049C5.58049 6.8727 7.22236 8.73162 9.24805 8.73162H22.3603C22.6645 8.73162 22.9104 8.45286 22.9104 8.10832V5.20248C22.9104 4.85873 22.6638 4.57919 22.3603 4.57919H11.1451C9.44706 3.23472 7.79169 2.12125 6.27918 1.31942C3.48515 -0.159733 1.48434 -0.404823 0.646349 0.632697C-1.05807 2.74219 2.69762 9.38702 9.19616 15.7617C12.2681 18.7748 15.463 21.2312 18.1923 22.6782C19.8477 23.556 21.2245 24 22.2466 24C22.9488 24 23.484 23.7901 23.8252 23.3673C24.6632 22.3298 24.2111 20.1694 22.5522 17.2831V17.2824ZM22.0191 20.5413C21.84 20.7629 21.5422 20.8726 21.1413 20.8726C19.626 20.8726 16.6478 19.3057 13.1253 16.3059V15.9214C13.1253 15.3318 13.5475 14.8542 14.0678 14.8542H19.9778C20.2777 15.2895 20.5542 15.7171 20.8044 16.1321C22.1008 18.2854 22.5429 19.8922 22.0184 20.5413H22.0191ZM8.5009 16.2225V20.573C8.5009 20.8518 8.70062 21.0781 8.94655 21.0781H12.6788C12.9247 21.0781 13.1244 20.8518 13.1244 20.573V20.3107C11.6503 19.1612 10.1506 17.8434 8.6793 16.4002C8.64594 16.3678 8.61324 16.3349 8.58058 16.3021L8.58036 16.3018L8.58034 16.3018C8.55393 16.2753 8.52755 16.2487 8.5009 16.2225ZM32.6544 4.64864H27.1192V21.0811H30.4273V15.4811H32.6327C33.8868 15.4811 34.9679 15.2649 35.876 14.8324C36.7985 14.3856 37.5048 13.7585 37.9949 12.9513C38.4994 12.1297 38.7516 11.164 38.7516 10.054C38.7516 8.94413 38.4994 7.98557 37.9949 7.17837C37.5048 6.37116 36.7985 5.75134 35.876 5.31891C34.9679 4.87206 33.894 4.64864 32.6544 4.64864ZM35.3571 10.0757C35.3571 11.9495 34.276 12.8865 32.1138 12.8865H30.4273V7.26485H32.1138C34.276 7.26485 35.3571 8.20179 35.3571 10.0757ZM47.525 21.0811H50.5304V10.054H47.525L47.4817 11.6757C47.1358 11.0558 46.6529 10.573 46.0331 10.227C45.4132 9.88107 44.7214 9.7081 43.9574 9.7081C42.9916 9.7081 42.1123 9.96756 41.3196 10.4865C40.5412 11.0054 39.9214 11.7117 39.4601 12.6054C38.9988 13.4847 38.7682 14.4793 38.7682 15.5892C38.7682 16.7279 38.9844 17.7369 39.4169 18.6162C39.8493 19.4955 40.4403 20.1874 41.1898 20.6919C41.9538 21.182 42.8259 21.427 43.806 21.427C45.5069 21.427 46.7322 20.764 47.4817 19.4378L47.525 21.0811ZM47.5466 15.5676C47.5466 16.4613 47.2871 17.1964 46.7682 17.773C46.2493 18.3351 45.5718 18.6162 44.7358 18.6162C43.9141 18.6162 43.2439 18.3351 42.725 17.773C42.206 17.1964 41.9466 16.4613 41.9466 15.5676C41.9466 14.6739 42.206 13.9459 42.725 13.3838C43.2439 12.8072 43.9141 12.5189 44.7358 12.5189C45.5718 12.5189 46.2493 12.8072 46.7682 13.3838C47.2871 13.9459 47.5466 14.6739 47.5466 15.5676ZM52.2429 18.0108C52.7618 18.3567 53.3456 18.6306 53.9942 18.8324C54.6429 19.0198 55.2699 19.1135 55.8753 19.1135C57.1149 19.1135 57.7348 18.7603 57.7348 18.054C57.7348 17.7225 57.605 17.4631 57.3456 17.2757C57.0861 17.0883 56.5456 16.8793 55.7239 16.6486C54.3978 16.2883 53.4537 15.8414 52.8915 15.3081C52.3438 14.7748 52.0699 14.0468 52.0699 13.1243C52.0699 12.0576 52.4663 11.2216 53.2591 10.6162C54.0663 10.0108 55.169 9.7081 56.5672 9.7081C57.2591 9.7081 57.951 9.78738 58.6429 9.94593C59.3348 10.1045 59.9041 10.3135 60.351 10.573L59.9834 12.8649C58.9023 12.3027 57.814 12.0216 56.7185 12.0216C55.6375 12.0216 55.0969 12.3531 55.0969 13.0162C55.0969 13.3333 55.2339 13.5856 55.5077 13.773C55.7816 13.9603 56.2933 14.1549 57.0429 14.3567C58.4266 14.7603 59.4068 15.236 59.9834 15.7838C60.5744 16.3315 60.8699 17.0739 60.8699 18.0108C60.8699 19.0631 60.4375 19.8991 59.5726 20.5189C58.7221 21.1243 57.5474 21.427 56.0483 21.427C55.2555 21.427 54.4699 21.3261 53.6915 21.1243C52.9275 20.9225 52.3149 20.6631 51.8537 20.3459L52.2429 18.0108ZM63.555 18.8324C62.9064 18.6306 62.3226 18.3567 61.8037 18.0108L61.4145 20.3459C61.8757 20.6631 62.4884 20.9225 63.2523 21.1243C64.0307 21.3261 64.8163 21.427 65.6091 21.427C67.1082 21.427 68.2829 21.1243 69.1334 20.5189C69.9983 19.8991 70.4307 19.0631 70.4307 18.0108C70.4307 17.0739 70.1352 16.3315 69.5442 15.7838C68.9676 15.236 67.9874 14.7603 66.6037 14.3567C65.8541 14.1549 65.3424 13.9603 65.0685 13.773C64.7947 13.5856 64.6577 13.3333 64.6577 13.0162C64.6577 12.3531 65.1983 12.0216 66.2793 12.0216C67.3748 12.0216 68.4631 12.3027 69.5442 12.8649L69.9118 10.573C69.4649 10.3135 68.8956 10.1045 68.2037 9.94593C67.5118 9.78738 66.8199 9.7081 66.128 9.7081C64.7298 9.7081 63.6271 10.0108 62.8199 10.6162C62.0271 11.2216 61.6307 12.0576 61.6307 13.1243C61.6307 14.0468 61.9046 14.7748 62.4523 15.3081C63.0145 15.8414 63.9586 16.2883 65.2848 16.6486C66.1064 16.8793 66.6469 17.0883 66.9064 17.2757C67.1658 17.4631 67.2956 17.7225 67.2956 18.054C67.2956 18.7603 66.6757 19.1135 65.4361 19.1135C64.8307 19.1135 64.2037 19.0198 63.555 18.8324Z" fill="white"></path>
</svg>